<svg preserveAspectRatio="none" overflow="visible" style="display: block;" width="180" height="104" viewBox="0 0 180 104" fill="none" xmlns="http://www.w3.org/2000/svg">
<g id="Tossed greens and ceramic bowl">
<path id="Vector" d="M26 31C37 7 65 3 89 12C113 0 145 13 157 35C173 55 159 83 137 93C116 107 93 98 71 99C43 101 16 91 15 65C12 52 18 40 26 31Z" fill="#EAF6EE"/>
<path id="Vector_2" d="M89 101C113.301 101 133 99.2091 133 97C133 94.7909 113.301 93 89 93C64.6995 93 45 94.7909 45 97C45 99.2091 64.6995 101 89 101Z" fill="#DAEDE1"/>
<path id="Vector_3" d="M45 69C49 91 63 99 89 99C115 99 131 88 135 69H45Z" fill="#D3E7E0"/>
<path id="Vector_4" d="M49 69C54 91 68 95 89 95C110 95 124 88 131 69H49Z" fill="#FAFCFB"/>
<path id="Vector_5" d="M62 85C75 94 106 96 117 83C111 96 73 101 62 85Z" fill="#BDD8CE"/>
<path id="Vector_6" d="M90 79C115.405 79 136 74.0751 136 68C136 61.9249 115.405 57 90 57C64.5949 57 44 61.9249 44 68C44 74.0751 64.5949 79 90 79Z" fill="#A7CBB9"/>
<path id="Vector_7" d="M90 75C112.091 75 130 71.4183 130 67C130 62.5817 112.091 59 90 59C67.9086 59 50 62.5817 50 67C50 71.4183 67.9086 75 90 75Z" fill="#E7F3E7"/>
<path id="Vector_8" d="M57 68C55 54 70 53 76 60C84 48 99 54 97 65C109 50 125 58 123 68C101 77 80 74 57 68Z" fill="#4EA96E"/>
<path id="Vector_9" d="M62 46C43 44 43 28 47 25C65 28 72 39 62 46Z" fill="#2F8F5B"/>
<path id="Vector_10" d="M112 41C110 24 123 18 133 20C135 37 124 46 112 41Z" fill="#82C98F"/>
<path id="Vector_11" d="M84 29C68 22 74 11 81 9C94 13 98 25 84 29Z" fill="#2F8F5B"/>
<path id="Vector_12" d="M126 55C137 40 147 46 149 50C143 63 132 65 126 55Z" fill="#77BD76"/>
<g id="Vector_13">
<path d="M49 29L61 42ZM130 23L115 39ZM81 13L85 25Z" fill="black"/>
<path d="M49 29L61 42M130 23L115 39M81 13L85 25" stroke="white" stroke-width="1.5" stroke-linecap="round"/>
</g>
<path id="Vector_14" d="M78 40L92 35L88 53C86.6667 56.3333 84.6667 56.3333 82 53L78 40Z" fill="#E8833A"/>
<g id="Vector_15">
<path d="M86 35L85 29ZM89 35L94 29Z" fill="black"/>
<path d="M86 35L85 29M89 35L94 29" stroke="#2F8F5B" stroke-width="2" stroke-linecap="round"/>
</g>
<path id="Vector_16" d="M105 57C108.866 57 112 53.866 112 50C112 46.134 108.866 43 105 43C101.134 43 98 46.134 98 50C98 53.866 101.134 57 105 57Z" fill="#E26954"/>
<path id="Vector_17" d="M102 43L107 46L109 42" stroke="#2F8F5B" stroke-width="2"/>
<path id="Vector_18" d="M78 71C80.2091 71 82 69.2091 82 67C82 64.7909 80.2091 63 78 63C75.7909 63 74 64.7909 74 67C74 69.2091 75.7909 71 78 71Z" fill="#E8833A"/>
<path id="Vector_19" d="M107 71C109.209 71 111 69.2091 111 67C111 64.7909 109.209 63 107 63C104.791 63 103 64.7909 103 67C103 69.2091 104.791 71 107 71Z" fill="#E26954"/>
<path id="Vector_20" d="M92 59L98 62L95 67L89 64L92 59Z" fill="#FEF3C7"/>
<g id="Vector_21">
<path d="M37 49L33 45ZM142 30L146 26ZM100 18L103 15Z" fill="black"/>
<path d="M37 49L33 45M142 30L146 26M100 18L103 15" stroke="#9FCAB1" stroke-width="2" stroke-linecap="round"/>
</g>
</g>
</svg>
